<?xml version="1.0" encoding="UTF-8" standalone="no"?>
<svg
   height="48"
   width="48"
   version="1.1"
   id="svg4"
   sodipodi:docname="event_note_FILL0_wght400_GRAD0_opsz48.svg"
   inkscape:version="1.2.2 (732a01da63, 2022-12-09)"
   xmlns:inkscape="http://www.inkscape.org/namespaces/inkscape"
   xmlns:sodipodi="http://sodipodi.sourceforge.net/DTD/sodipodi-0.dtd"
   xmlns="http://www.w3.org/2000/svg"
   xmlns:svg="http://www.w3.org/2000/svg">
  <defs
     id="defs8" />
  <sodipodi:namedview
     id="namedview6"
     pagecolor="#ffffff"
     bordercolor="#000000"
     borderopacity="0.25"
     inkscape:showpageshadow="2"
     inkscape:pageopacity="0.0"
     inkscape:pagecheckerboard="0"
     inkscape:deskcolor="#d1d1d1"
     showgrid="false"
     inkscape:zoom="4.9166667"
     inkscape:cx="24"
     inkscape:cy="24.101695"
     inkscape:window-width="1368"
     inkscape:window-height="842"
     inkscape:window-x="-6"
     inkscape:window-y="-6"
     inkscape:window-maximized="1"
     inkscape:current-layer="svg4" />
  <path
     d="M9 44q-1.2 0-2.1-.9Q6 42.2 6 41V10q0-1.2.9-2.1Q7.8 7 9 7h3.25V4h3.25v3h17V4h3.25v3H39q1.2 0 2.1.9.9.9.9 2.1v31q0 1.2-.9 2.1-.9.9-2.1.9Zm0-3h30V19.5H9V41Zm0-24.5h30V10H9Zm0 0V10v6.5ZM14 27v-3h20v3Zm0 9v-3h13.95v3Z"
     id="path2"
     style="fill:#fafafa;fill-opacity:1" />
</svg>
