<?xml version="1.0" encoding="UTF-8" standalone="no"?>
<svg
   height="48"
   width="48"
   version="1.1"
   id="svg2078"
   sodipodi:docname="light_mode_FILL0_wght400_GRAD0_opsz48.svg"
   inkscape:version="1.2.2 (732a01da63, 2022-12-09)"
   xmlns:inkscape="http://www.inkscape.org/namespaces/inkscape"
   xmlns:sodipodi="http://sodipodi.sourceforge.net/DTD/sodipodi-0.dtd"
   xmlns="http://www.w3.org/2000/svg"
   xmlns:svg="http://www.w3.org/2000/svg">
  <defs
     id="defs2082" />
  <sodipodi:namedview
     id="namedview2080"
     pagecolor="#ffffff"
     bordercolor="#000000"
     borderopacity="0.25"
     inkscape:showpageshadow="2"
     inkscape:pageopacity="0.0"
     inkscape:pagecheckerboard="0"
     inkscape:deskcolor="#d1d1d1"
     showgrid="false"
     inkscape:zoom="4.9166667"
     inkscape:cx="24"
     inkscape:cy="24.101695"
     inkscape:window-width="1368"
     inkscape:window-height="842"
     inkscape:window-x="-6"
     inkscape:window-y="-6"
     inkscape:window-maximized="1"
     inkscape:current-layer="svg2078" />
  <path
     d="M24 31q2.9 0 4.95-2.05Q31 26.9 31 24q0-2.9-2.05-4.95Q26.9 17 24 17q-2.9 0-4.95 2.05Q17 21.1 17 24q0 2.9 2.05 4.95Q21.1 31 24 31Zm0 3q-4.15 0-7.075-2.925T14 24q0-4.15 2.925-7.075T24 14q4.15 0 7.075 2.925T34 24q0 4.15-2.925 7.075T24 34ZM3.5 25.5q-.65 0-1.075-.425Q2 24.65 2 24q0-.65.425-1.075Q2.85 22.5 3.5 22.5h5q.65 0 1.075.425Q10 23.35 10 24q0 .65-.425 1.075-.425.425-1.075.425Zm36 0q-.65 0-1.075-.425Q38 24.65 38 24q0-.65.425-1.075.425-.425 1.075-.425h5q.65 0 1.075.425Q46 23.35 46 24q0 .65-.425 1.075-.425.425-1.075.425ZM24 10q-.65 0-1.075-.425Q22.5 9.15 22.5 8.5v-5q0-.65.425-1.075Q23.35 2 24 2q.65 0 1.075.425.425.425.425 1.075v5q0 .65-.425 1.075Q24.65 10 24 10Zm0 36q-.65 0-1.075-.425-.425-.425-.425-1.075v-5q0-.65.425-1.075Q23.35 38 24 38q.65 0 1.075.425.425.425.425 1.075v5q0 .65-.425 1.075Q24.65 46 24 46ZM12 14.1l-2.85-2.8q-.45-.45-.425-1.075.025-.625.425-1.075.45-.45 1.075-.45t1.075.45L14.1 12q.4.45.4 1.05 0 .6-.4 1-.4.45-1.025.45-.625 0-1.075-.4Zm24.7 24.75L33.9 36q-.4-.45-.4-1.075t.45-1.025q.4-.45 1-.45t1.05.45l2.85 2.8q.45.45.425 1.075-.025.625-.425 1.075-.45.45-1.075.45t-1.075-.45ZM33.9 14.1q-.45-.45-.45-1.05 0-.6.45-1.05l2.8-2.85q.45-.45 1.075-.425.625.025 1.075.425.45.45.45 1.075t-.45 1.075L36 14.1q-.4.4-1.025.4-.625 0-1.075-.4ZM9.15 38.85q-.45-.45-.45-1.075t.45-1.075L12 33.9q.45-.45 1.05-.45.6 0 1.05.45.45.45.45 1.05 0 .6-.45 1.05l-2.8 2.85q-.45.45-1.075.425-.625-.025-1.075-.425ZM24 24Z"
     id="path2076"
     style="fill:#fafafa;fill-opacity:1" />
</svg>
