<?xml version="1.0" encoding="UTF-8" standalone="no"?>
<svg
   height="48"
   width="48"
   version="1.1"
   id="svg5406"
   sodipodi:docname="list_FILL0_wght400_GRAD0_opsz48.svg"
   inkscape:version="1.2.2 (732a01da63, 2022-12-09)"
   xmlns:inkscape="http://www.inkscape.org/namespaces/inkscape"
   xmlns:sodipodi="http://sodipodi.sourceforge.net/DTD/sodipodi-0.dtd"
   xmlns="http://www.w3.org/2000/svg"
   xmlns:svg="http://www.w3.org/2000/svg">
  <defs
     id="defs5410" />
  <sodipodi:namedview
     id="namedview5408"
     pagecolor="#ffffff"
     bordercolor="#000000"
     borderopacity="0.25"
     inkscape:showpageshadow="2"
     inkscape:pageopacity="0.0"
     inkscape:pagecheckerboard="0"
     inkscape:deskcolor="#d1d1d1"
     showgrid="false"
     inkscape:zoom="4.9166667"
     inkscape:cx="-10.169492"
     inkscape:cy="24.101695"
     inkscape:window-width="1368"
     inkscape:window-height="842"
     inkscape:window-x="-6"
     inkscape:window-y="-6"
     inkscape:window-maximized="1"
     inkscape:current-layer="svg5406" />
  <path
     d="M7.5 34q-.65 0-1.075-.425Q6 33.15 6 32.5q0-.65.425-1.075Q6.85 31 7.5 31q.65 0 1.075.425Q9 31.85 9 32.5q0 .65-.425 1.075Q8.15 34 7.5 34Zm0-8.5q-.65 0-1.075-.425Q6 24.65 6 24q0-.65.425-1.075Q6.85 22.5 7.5 22.5q.65 0 1.075.425Q9 23.35 9 24q0 .65-.425 1.075-.425.425-1.075.425Zm0-8.5q-.65 0-1.075-.425Q6 16.15 6 15.5q0-.65.425-1.075Q6.85 14 7.5 14q.65 0 1.075.425Q9 14.85 9 15.5q0 .65-.425 1.075Q8.15 17 7.5 17Zm7 17v-3H42v3Zm0-8.5v-3H42v3Zm0-8.5v-3H42v3Z"
     id="path5404"
     style="fill:#fafafa;fill-opacity:1" />
</svg>
