<?xml version="1.0" encoding="UTF-8" standalone="no"?>
<svg
   height="48"
   width="48"
   version="1.1"
   id="svg7927"
   sodipodi:docname="shopping_cart_FILL0_wght400_GRAD0_opsz48.svg"
   inkscape:version="1.2.2 (732a01da63, 2022-12-09)"
   xmlns:inkscape="http://www.inkscape.org/namespaces/inkscape"
   xmlns:sodipodi="http://sodipodi.sourceforge.net/DTD/sodipodi-0.dtd"
   xmlns="http://www.w3.org/2000/svg"
   xmlns:svg="http://www.w3.org/2000/svg">
  <defs
     id="defs7931" />
  <sodipodi:namedview
     id="namedview7929"
     pagecolor="#ffffff"
     bordercolor="#000000"
     borderopacity="0.25"
     inkscape:showpageshadow="2"
     inkscape:pageopacity="0.0"
     inkscape:pagecheckerboard="0"
     inkscape:deskcolor="#d1d1d1"
     showgrid="false"
     inkscape:zoom="4.9166667"
     inkscape:cx="-10.169492"
     inkscape:cy="24.101695"
     inkscape:window-width="1368"
     inkscape:window-height="842"
     inkscape:window-x="-6"
     inkscape:window-y="-6"
     inkscape:window-maximized="1"
     inkscape:current-layer="svg7927" />
  <path
     d="M14.35 43.95q-1.5 0-2.55-1.05-1.05-1.05-1.05-2.55 0-1.5 1.05-2.55 1.05-1.05 2.55-1.05 1.5 0 2.55 1.05 1.05 1.05 1.05 2.55 0 1.5-1.05 2.55-1.05 1.05-2.55 1.05Zm20 0q-1.5 0-2.55-1.05-1.05-1.05-1.05-2.55 0-1.5 1.05-2.55 1.05-1.05 2.55-1.05 1.5 0 2.55 1.05 1.05 1.05 1.05 2.55 0 1.5-1.05 2.55-1.05 1.05-2.55 1.05Zm-22.6-33 5.5 11.4h14.4l6.25-11.4Zm-1.5-3H39.7q1.15 0 1.75 1.05.6 1.05 0 2.1L34.7 23.25q-.55.95-1.425 1.525t-1.925.575H16.2l-2.8 5.2h24.55v3h-24.1q-2.1 0-3.025-1.4-.925-1.4.025-3.15l3.2-5.9L6.45 7h-3.9V4H8.4Zm7 14.4h14.4Z"
     id="path7925"
     style="fill:#fafafa;fill-opacity:1" />
</svg>
